<?xml version="1.0" encoding="UTF-8" standalone="no" ?>
<!DOCTYPE svg PUBLIC "-//W3C//DTD SVG 1.1//EN" "http://www.w3.org/Graphics/SVG/1.1/DTD/svg11.dtd">
<svg xmlns="http://www.w3.org/2000/svg" xmlns:xlink="http://www.w3.org/1999/xlink" version="1.1" viewBox="0 0 307 82" xml:space="preserve">
<defs>
</defs>
  <g transform="matrix(1 0 0 1 154 -37)">
<g style="">
  <g transform="matrix(1 0 0 1 0 107.03)">
<linearGradient id="SVGID_color-11657686660_51" gradientUnits="userSpaceOnUse" gradientTransform="matrix(1 0 0 1 0 0)" x1="121.40041"
                y1="235" x2="428.59959" y2="235">
<stop offset="0%" style="stop-color:rgb(69,104,220);stop-opacity: 1"/>
  <stop offset="100%" style="stop-color:rgb(176,106,179);stop-opacity: 1"/>
</linearGradient>
    <path
      style="stroke: none; stroke-width: 1; stroke-dasharray: none; stroke-linecap: butt; stroke-dashoffset: 0; stroke-linejoin: miter; stroke-miterlimit: 10; fill: url(#SVGID_color-11657686660_51); fill-rule: nonzero; opacity: 1;"
      transform=" translate(-275, -342.03)" d="M 121.40041 342.46584 v -0.87462 h 307.19918 v 0.87462 z" stroke-linecap="round"/>
</g>
  <g transform="matrix(1 0 0 1 -139.93 67.37)">
<linearGradient id="SVGID_color-11657686660_52" gradientUnits="userSpaceOnUse" gradientTransform="matrix(1 0 0 1 0 0)" x1="121.40041"
                y1="235" x2="428.59959" y2="235">
<stop offset="0%" style="stop-color:rgb(69,104,220);stop-opacity: 1"/>
  <stop offset="100%" style="stop-color:rgb(176,106,179);stop-opacity: 1"/>
</linearGradient>
    <path
      style="stroke: none; stroke-width: 1; stroke-dasharray: none; stroke-linecap: butt; stroke-dashoffset: 0; stroke-linejoin: miter; stroke-miterlimit: 10; fill: url(#SVGID_color-11657686660_52); fill-rule: nonzero; opacity: 1;"
      transform=" translate(-135.07, -302.37)"
      d="M 128.23655 307.58273 h 6.15253 c 4.87075 0 6.06708 1.19633 6.06708 6.06708 v 1.96539 c 0 9.91241 0.25636 14.69771 1.45268 16.6631 h 6.83614 c -1.19633 -1.87994 -1.45268 -5.89617 -1.45268 -16.6631 v -2.81991 c 0 -4.18714 -0.68361 -6.92159 -2.99081 -9.05789 c 1.62358 -1.87994 2.99081 -3.16172 2.99081 -7.17795 v -11.19418 c 0 -9.22879 -3.58898 -12.90322 -12.90322 -12.90322 h -12.98867 v 59.81625 h 6.83614 z M 128.23655 278.78548 h 6.15253 c 4.87075 0 6.06708 1.19633 6.06708 6.06708 v 10.42512 c 0 4.7853 -1.19633 5.98163 -6.06708 5.98163 h -6.15253 z"
      stroke-linecap="round"/>
</g>
  <g transform="matrix(1 0 0 1 -108.69 67.37)">
<linearGradient id="SVGID_color-11657686660_53" gradientUnits="userSpaceOnUse" gradientTransform="matrix(1 0 0 1 0 0)" x1="121.40041"
                y1="235" x2="428.59959" y2="235">
<stop offset="0%" style="stop-color:rgb(69,104,220);stop-opacity: 1"/>
  <stop offset="100%" style="stop-color:rgb(176,106,179);stop-opacity: 1"/>
</linearGradient>
    <path
      style="stroke: none; stroke-width: 1; stroke-dasharray: none; stroke-linecap: butt; stroke-dashoffset: 0; stroke-linejoin: miter; stroke-miterlimit: 10; fill: url(#SVGID_color-11657686660_53); fill-rule: nonzero; opacity: 1;"
      transform=" translate(-166.31, -302.37)"
      d="M 177.62769 278.78548 v -6.32343 h -22.64472 v 59.81625 h 22.64472 v -6.32343 h -15.80858 v -22.73018 h 13.24503 v -6.32343 h -13.24503 v -18.11578 z"
      stroke-linecap="round"/>
</g>
  <g transform="matrix(1 0 0 1 -77.03 67.37)">
<linearGradient id="SVGID_color-11657686660_54" gradientUnits="userSpaceOnUse" gradientTransform="matrix(1 0 0 1 0 0)" x1="121.40041"
                y1="235" x2="428.59959" y2="235">
<stop offset="0%" style="stop-color:rgb(69,104,220);stop-opacity: 1"/>
  <stop offset="100%" style="stop-color:rgb(176,106,179);stop-opacity: 1"/>
</linearGradient>
    <path
      style="stroke: none; stroke-width: 1; stroke-dasharray: none; stroke-linecap: butt; stroke-dashoffset: 0; stroke-linejoin: miter; stroke-miterlimit: 10; fill: url(#SVGID_color-11657686660_54); fill-rule: nonzero; opacity: 1;"
      transform=" translate(-197.97, -302.37)"
      d="M 201.46874 272.46204 h -7.00705 l -10.85238 59.81625 h 6.92159 l 1.87994 -11.10873 h 11.10873 l 1.87994 11.10873 h 6.92159 z M 197.96521 289.5524 l 4.44349 25.29373 h -8.88699 z"
      stroke-linecap="round"/>
</g>
  <g transform="matrix(1 0 0 1 -42.51 67.37)">
<linearGradient id="SVGID_color-11657686660_55" gradientUnits="userSpaceOnUse" gradientTransform="matrix(1 0 0 1 0 0)" x1="121.40041"
                y1="235" x2="428.59959" y2="235">
<stop offset="0%" style="stop-color:rgb(69,104,220);stop-opacity: 1"/>
  <stop offset="100%" style="stop-color:rgb(176,106,179);stop-opacity: 1"/>
</linearGradient>
    <path
      style="stroke: none; stroke-width: 1; stroke-dasharray: none; stroke-linecap: butt; stroke-dashoffset: 0; stroke-linejoin: miter; stroke-miterlimit: 10; fill: url(#SVGID_color-11657686660_55); fill-rule: nonzero; opacity: 1;"
      transform=" translate(-232.49, -302.37)"
      d="M 239.83659 317.23878 c 0 4.6144 -1.19633 9.22879 -7.34885 9.22879 c -5.81072 0 -7.34885 -4.10169 -7.34885 -9.22879 v -29.73722 c 0 -5.12711 1.53813 -9.22879 7.34885 -9.22879 c 6.15253 0 7.34885 4.6144 7.34885 9.22879 h 6.83614 c 0 -8.88699 -5.04166 -15.55223 -14.185 -15.55223 c -9.7415 0 -14.185 7.2634 -14.185 15.55223 v 29.73722 c 0 8.28882 4.44349 15.55223 14.185 15.55223 c 9.14334 0 14.185 -6.66524 14.185 -15.55223 z"
      stroke-linecap="round"/>
</g>
  <g transform="matrix(1 0 0 1 -10.3 67.37)">
<linearGradient id="SVGID_color-11657686660_56" gradientUnits="userSpaceOnUse" gradientTransform="matrix(1 0 0 1 0 0)" x1="121.40041"
                y1="235" x2="428.59959" y2="235">
<stop offset="0%" style="stop-color:rgb(69,104,220);stop-opacity: 1"/>
  <stop offset="100%" style="stop-color:rgb(176,106,179);stop-opacity: 1"/>
</linearGradient>
    <path
      style="stroke: none; stroke-width: 1; stroke-dasharray: none; stroke-linecap: butt; stroke-dashoffset: 0; stroke-linejoin: miter; stroke-miterlimit: 10; fill: url(#SVGID_color-11657686660_56); fill-rule: nonzero; opacity: 1;"
      transform=" translate(-264.7, -302.37)"
      d="M 278.88806 272.46204 h -28.36999 v 6.32343 h 10.76693 v 53.49282 h 6.83614 v -53.49282 h 10.76693 z" stroke-linecap="round"/>
</g>
  <g transform="matrix(1 0 0 1 39.91 67.37)">
<linearGradient id="SVGID_color-11657686660_57" gradientUnits="userSpaceOnUse" gradientTransform="matrix(1 0 0 1 0 0)" x1="121.40041"
                y1="235" x2="428.59959" y2="235">
<stop offset="0%" style="stop-color:rgb(69,104,220);stop-opacity: 1"/>
  <stop offset="100%" style="stop-color:rgb(176,106,179);stop-opacity: 1"/>
</linearGradient>
    <path
      style="stroke: none; stroke-width: 1; stroke-dasharray: none; stroke-linecap: butt; stroke-dashoffset: 0; stroke-linejoin: miter; stroke-miterlimit: 10; fill: url(#SVGID_color-11657686660_57); fill-rule: nonzero; opacity: 1;"
      transform=" translate(-314.91, -302.37)"
      d="M 301.53278 332.2783 h 13.84319 c 9.31425 0 12.90322 -3.67443 12.90322 -12.90322 v -10.93783 c 0 -4.18714 -1.53813 -6.92159 -3.84533 -9.05789 c 1.62358 -1.87994 2.99081 -3.16172 2.99081 -7.17795 v -6.83614 c 0 -9.22879 -3.58898 -12.90322 -12.90322 -12.90322 h -12.98867 z M 315.37597 325.95486 h -7.00705 v -22.73018 h 7.00705 c 4.87075 0 6.06708 1.19633 6.06708 6.06708 v 10.59602 c 0 4.87075 -1.19633 6.06708 -6.06708 6.06708 z M 308.36892 278.78548 h 6.15253 c 4.87075 0 6.06708 1.19633 6.06708 6.06708 v 6.06708 c 0 4.7853 -1.19633 5.98163 -6.06708 5.98163 h -6.15253 z"
      stroke-linecap="round"/>
</g>
  <g transform="matrix(1 0 0 1 74.73 67.63)">
<linearGradient id="SVGID_color-11657686660_58" gradientUnits="userSpaceOnUse" gradientTransform="matrix(1 0 0 1 0 0)" x1="121.40041"
                y1="235" x2="428.59959" y2="235">
<stop offset="0%" style="stop-color:rgb(69,104,220);stop-opacity: 1"/>
  <stop offset="100%" style="stop-color:rgb(176,106,179);stop-opacity: 1"/>
</linearGradient>
    <path
      style="stroke: none; stroke-width: 1; stroke-dasharray: none; stroke-linecap: butt; stroke-dashoffset: 0; stroke-linejoin: miter; stroke-miterlimit: 10; fill: url(#SVGID_color-11657686660_58); fill-rule: nonzero; opacity: 1;"
      transform=" translate(-349.73, -302.63)"
      d="M 342.37874 272.46204 h -6.83614 v 44.77674 c 0 8.28882 4.44349 15.55223 14.185 15.55223 c 9.14334 0 14.185 -6.66524 14.185 -15.55223 v -44.77674 h -6.83614 v 44.77674 c 0 4.6144 -1.19633 9.22879 -7.34885 9.22879 c -5.81072 0 -7.34885 -4.10169 -7.34885 -9.22879 z"
      stroke-linecap="round"/>
</g>
  <g transform="matrix(1 0 0 1 108.35 67.37)">
<linearGradient id="SVGID_color-11657686660_59" gradientUnits="userSpaceOnUse" gradientTransform="matrix(1 0 0 1 0 0)" x1="121.40041"
                y1="235" x2="428.59959" y2="235">
<stop offset="0%" style="stop-color:rgb(69,104,220);stop-opacity: 1"/>
  <stop offset="100%" style="stop-color:rgb(176,106,179);stop-opacity: 1"/>
</linearGradient>
    <path
      style="stroke: none; stroke-width: 1; stroke-dasharray: none; stroke-linecap: butt; stroke-dashoffset: 0; stroke-linejoin: miter; stroke-miterlimit: 10; fill: url(#SVGID_color-11657686660_59); fill-rule: nonzero; opacity: 1;"
      transform=" translate(-383.35, -302.37)" d="M 378.86665 325.95486 v -53.49282 h -6.83614 v 59.81625 h 22.64472 v -6.32343 z"
      stroke-linecap="round"/>
</g>
  <g transform="matrix(1 0 0 1 139.41 67.37)">
<linearGradient id="SVGID_color-11657686660_60" gradientUnits="userSpaceOnUse" gradientTransform="matrix(1 0 0 1 0 0)" x1="121.40041"
                y1="235" x2="428.59959" y2="235">
<stop offset="0%" style="stop-color:rgb(69,104,220);stop-opacity: 1"/>
  <stop offset="100%" style="stop-color:rgb(176,106,179);stop-opacity: 1"/>
</linearGradient>
    <path
      style="stroke: none; stroke-width: 1; stroke-dasharray: none; stroke-linecap: butt; stroke-dashoffset: 0; stroke-linejoin: miter; stroke-miterlimit: 10; fill: url(#SVGID_color-11657686660_60); fill-rule: nonzero; opacity: 1;"
      transform=" translate(-414.41, -302.37)"
      d="M 427.74507 272.46204 h -7.69066 l -12.98867 25.29373 v -25.29373 h -6.83614 v 59.81625 h 6.83614 v -20.85024 l 4.27259 -8.20337 l 9.99786 29.05361 h 7.2634 l -12.64686 -36.82972 z"
      stroke-linecap="round"/>
</g>
</g>
</g>
</svg>
